<?xml version="1.0" encoding="utf-8"?>
<!-- Svg Vector Icons : http://www.onlinewebfonts.com/icon -->
<!DOCTYPE svg PUBLIC "-//W3C//DTD SVG 1.1//EN" "http://www.w3.org/Graphics/SVG/1.1/DTD/svg11.dtd">
<svg version="1.1" xmlns="http://www.w3.org/2000/svg" xmlns:xlink="http://www.w3.org/1999/xlink" x="0px" y="0px" viewBox="0 0 1000 1000" enable-background="new 0 0 1000 1000" xml:space="preserve">
<metadata> Svg Vector Icons : http://www.onlinewebfonts.com/icon </metadata>
<g><path d="M500,10C229.8,10,10,229.8,10,500c0,270.2,219.8,490,490,490c270.2,0,490-219.8,490-490C990,229.8,770.2,10,500,10L500,10z M834,383L467.3,753.6c-0.1,0.1-0.3,0.1-0.4,0.3c-0.1,0.1-0.1,0.3-0.3,0.4c-2.9,2.8-6.5,4.6-9.9,6.5c-1.7,1-3.1,2.4-4.9,3.1c-5.5,2.2-11.3,3.3-17.1,3.3c-5.9,0-11.8-1.1-17.3-3.4c-1.8-0.8-3.3-2.3-5-3.3c-3.4-1.9-6.9-3.6-9.8-6.5c-0.1-0.1-0.1-0.3-0.2-0.4c-0.1-0.1-0.3-0.1-0.4-0.3L221.6,568c-17.6-18.1-2.9-57.3,15.3-74.9c18.1-17.6,57.3-25.1,75-6.9l124.3,120.9l301.3-311.3c17.8-18,60.3-13.2,78.2,4.6C833.6,318.2,851.8,365,834,383L834,383z"/></g>
</svg>