<svg width="22" height="22" viewBox="0 0 22 22" fill="none" xmlns="http://www.w3.org/2000/svg">
<rect width="22" height="22" rx="3" fill="#FF6636"/>
<path d="M19.25 0H2.75C1.23385 0 0 1.23385 0 2.75V19.25C0 20.7662 1.23385 22 2.75 22H19.25C20.7662 22 22 20.7662 22 19.25V2.75C22 1.23385 20.7662 0 19.25 0ZM20.1667 19.25C20.1667 19.756 19.7551 20.1667 19.25 20.1667H2.75C2.2449 20.1667 1.83335 19.756 1.83335 19.25V2.75C1.83335 2.2449 2.24495 1.83335 2.75 1.83335H19.25C19.7551 1.83335 20.1667 2.24495 20.1667 2.75V19.25V19.25Z" fill="#FF6636"/>
<path d="M6.34351 5.15183C6.29766 5.03267 6.23351 4.94098 6.151 4.84933C6.10516 4.81267 6.05935 4.77598 6.0135 4.73933C5.9585 4.70267 5.9035 4.67517 5.8485 4.65683C5.7935 4.62933 5.7385 4.61098 5.6835 4.60183C5.50015 4.56517 5.31685 4.58348 5.15185 4.65683C5.04185 4.70267 4.941 4.76683 4.84935 4.84933C4.76684 4.94098 4.70269 5.03267 4.65684 5.15183C4.611 5.26183 4.5835 5.38098 4.5835 5.50018C4.5835 5.61937 4.611 5.73852 4.65684 5.84852C4.70269 5.96768 4.76684 6.05937 4.84935 6.15103C5.0235 6.31603 5.26185 6.41687 5.5002 6.41687C5.5552 6.41687 5.61935 6.40772 5.68355 6.39853C5.73855 6.38937 5.79355 6.37103 5.84855 6.34353C5.90355 6.32518 5.95855 6.29768 6.01355 6.26103C6.05939 6.22437 6.1052 6.18768 6.15105 6.15103C6.31605 5.97687 6.4169 5.73852 6.4169 5.50018C6.41681 5.38102 6.38931 5.26183 6.34351 5.15183Z" fill="white"/>
<path d="M16.5 4.5835H9.16665C8.66065 4.5835 8.25 4.99415 8.25 5.50015C8.25 6.00616 8.66065 6.41681 9.16665 6.41681H16.5C17.006 6.41681 17.4167 6.00616 17.4167 5.50015C17.4167 4.99415 17.006 4.5835 16.5 4.5835Z" fill="white"/>
<path d="M6.39851 10.8166C6.38935 10.7616 6.37101 10.7066 6.34351 10.6516C6.32516 10.5966 6.29766 10.5416 6.26101 10.4866C6.22435 10.4408 6.18766 10.395 6.151 10.3491C6.05935 10.2666 5.9585 10.2025 5.8485 10.1566C5.6285 10.065 5.37185 10.065 5.15185 10.1566C5.04185 10.2025 4.941 10.2666 4.84935 10.3491C4.81269 10.395 4.776 10.4408 4.73934 10.4866C4.70269 10.5416 4.67519 10.5966 4.65684 10.6516C4.62934 10.7066 4.611 10.7616 4.60184 10.8166C4.59269 10.8808 4.5835 10.945 4.5835 11C4.5835 11.2383 4.68434 11.4766 4.84935 11.6508C5.0235 11.8158 5.26185 11.9167 5.5002 11.9167C5.73855 11.9167 5.97685 11.8158 6.15105 11.6508C6.31605 11.4767 6.4169 11.2383 6.4169 11C6.41681 10.945 6.40766 10.8808 6.39851 10.8166Z" fill="white"/>
<path d="M16.5 10.0835H9.16665C8.66065 10.0835 8.25 10.4941 8.25 11.0001C8.25 11.5061 8.66065 11.9168 9.16665 11.9168H16.5C17.006 11.9168 17.4167 11.5061 17.4167 11.0001C17.4167 10.4941 17.006 10.0835 16.5 10.0835Z" fill="white"/>
<path d="M6.34351 16.1518C6.29766 16.0326 6.23351 15.9409 6.151 15.8493C5.89435 15.6009 5.491 15.5193 5.15185 15.6568C5.04185 15.7026 4.941 15.7668 4.84935 15.8493C4.76684 15.9409 4.70269 16.0418 4.65684 16.1518C4.611 16.2618 4.5835 16.3809 4.5835 16.5001C4.5835 16.7476 4.67515 16.9768 4.84935 17.151C5.0235 17.3242 5.2527 17.4168 5.5002 17.4168C5.7477 17.4168 5.97685 17.3242 6.15105 17.151C6.3252 16.9768 6.4169 16.7476 6.4169 16.5001C6.41681 16.381 6.39851 16.2618 6.34351 16.1518Z" fill="white"/>
<path d="M16.5 15.5835H9.16665C8.66065 15.5835 8.25 15.9932 8.25 16.5001C8.25 17.0071 8.66065 17.4168 9.16665 17.4168H16.5C17.006 17.4168 17.4167 17.0071 17.4167 16.5001C17.4167 15.9932 17.006 15.5835 16.5 15.5835Z" fill="white"/>
</svg>
